<?xml version="1.0" encoding="UTF-8" standalone="no"?>
<!DOCTYPE svg PUBLIC "-//W3C//DTD SVG 1.1//EN" "http://www.w3.org/Graphics/SVG/1.1/DTD/svg11.dtd">
<svg width="100%" height="100%" viewBox="0 0 300 311" version="1.1" xmlns="http://www.w3.org/2000/svg" xmlns:xlink="http://www.w3.org/1999/xlink" xml:space="preserve" xmlns:serif="http://www.serif.com/" style="fill-rule:evenodd;clip-rule:evenodd;stroke-linecap:round;stroke-linejoin:round;stroke-miterlimit:1.5;">
    <g transform="matrix(1,0,0,1,-9302.19,-948.864)">
        <g id="ArtBoard4" transform="matrix(0.188055,0,0,0.224526,7982.1,790.248)">
            <rect x="6704.07" y="458.2" width="2241.41" height="1877.33" style="fill:rgb(252,244,170);"/>
            <g transform="matrix(-5.2276,0.815918,0.974154,4.37846,8685.74,-2162.99)">
                <g>
                    <g transform="matrix(0.977014,-0.213173,0.168323,0.771457,92.4859,231.378)">
                        <path d="M194.316,818.584L194.316,841.39" style="fill:none;stroke:black;stroke-width:4.44px;"/>
                    </g>
                    <g transform="matrix(0.94184,-0.336061,0.265356,0.743683,26.4779,259.164)">
                        <path d="M194.316,818.584L194.316,841.39" style="fill:none;stroke:black;stroke-width:4.44px;"/>
                    </g>
                    <g transform="matrix(0.829818,-0.558035,0.440628,0.655229,-91.2712,359.476)">
                        <path d="M194.316,818.584L194.316,841.39" style="fill:none;stroke:black;stroke-width:4.44px;"/>
                    </g>
                    <g transform="matrix(0.993814,-0.111057,0.126021,1.12772,113.649,-75.3576)">
                        <path d="M194.316,818.584L194.316,841.39" style="fill:none;stroke:black;stroke-width:3.74px;"/>
                    </g>
                    <g transform="matrix(0.953352,0.301859,-0.284068,0.897161,250.193,26.2528)">
                        <path d="M194.316,818.584L194.316,841.39" style="fill:none;stroke:black;stroke-width:4.12px;"/>
                    </g>
                    <g transform="matrix(0.969274,0.245986,-0.224849,0.885989,188.824,32.6278)">
                        <path d="M194.316,818.584L194.316,841.39" style="fill:none;stroke:black;stroke-width:4.18px;"/>
                    </g>
                    <g transform="matrix(0.986103,0.166137,-0.189579,1.12524,174.951,-122.032)">
                        <path d="M194.316,818.584L194.316,841.39" style="fill:none;stroke:black;stroke-width:3.73px;"/>
                    </g>
                    <g transform="matrix(0.996783,0.0801429,-0.0994231,1.23658,111.715,-183.588)">
                        <path d="M194.316,818.584L194.316,841.39" style="fill:none;stroke:black;stroke-width:3.55px;"/>
                    </g>
                    <g transform="matrix(1,0,0,1.24057,41.0641,-157.181)">
                        <path d="M194.316,818.584L194.316,841.39" style="fill:none;stroke:black;stroke-width:3.55px;"/>
                    </g>
                    <g transform="matrix(1,0,0,1.40519,55.5573,-287.982)">
                        <path d="M194.316,818.584L194.316,841.39" style="fill:none;stroke:black;stroke-width:3.28px;"/>
                    </g>
                    <g transform="matrix(1,0,0,1.55324,65.7747,-409.177)">
                        <path d="M194.316,818.584L194.316,841.39" style="fill:none;stroke:black;stroke-width:3.06px;"/>
                    </g>
                    <g transform="matrix(1,0,0,1.59671,78.8336,-444.761)">
                        <path d="M194.316,818.584L194.316,841.39" style="fill:none;stroke:black;stroke-width:3px;"/>
                    </g>
                    <g transform="matrix(1,0,0,1.53631,92.0822,-390.36)">
                        <path d="M194.316,818.584L194.316,841.39" style="fill:none;stroke:black;stroke-width:3.09px;"/>
                    </g>
                    <g transform="matrix(1,0,0,1.53631,108.19,-386.919)">
                        <path d="M194.316,818.584L194.316,841.39" style="fill:none;stroke:black;stroke-width:3.09px;"/>
                    </g>
                    <g transform="matrix(1,0,0,1.53631,127.489,-387.044)">
                        <path d="M194.316,818.584L194.316,841.39" style="fill:none;stroke:black;stroke-width:3.09px;"/>
                    </g>
                    <g transform="matrix(1,0,0,1.53631,147.737,-387.689)">
                        <path d="M194.316,818.584L194.316,841.39" style="fill:none;stroke:black;stroke-width:3.09px;"/>
                    </g>
                    <g transform="matrix(1,0,0,1.40379,162.952,-283.112)">
                        <path d="M194.316,818.584L194.316,841.39" style="fill:none;stroke:black;stroke-width:3.28px;"/>
                    </g>
                    <g transform="matrix(1,0,0,1.40379,180.328,-291.898)">
                        <path d="M194.316,818.584L194.316,841.39" style="fill:none;stroke:black;stroke-width:3.28px;"/>
                    </g>
                    <g transform="matrix(1,0,0,1.13474,193.889,-74.5308)">
                        <path d="M194.316,818.584L194.316,841.39" style="fill:none;stroke:black;stroke-width:3.74px;"/>
                    </g>
                    <g transform="matrix(1,0,0,1.13474,206.064,-87.9058)">
                        <path d="M194.316,818.584L194.316,841.39" style="fill:none;stroke:black;stroke-width:3.74px;"/>
                    </g>
                </g>
                <g>
                    <g transform="matrix(2.52133,0,0,2.93703,-2132.87,-485.279)">
                        <path d="M968.371,373.191C1002.6,372.512 1025.13,391.005 1020.25,421.992C1015.75,450.557 998.471,470.821 968.371,470.792C941.458,470.767 918.405,450.452 916.491,421.992C914.693,395.261 922.912,374.094 968.371,373.191Z" style="fill:rgb(253,228,212);stroke:black;stroke-width:2.92px;"/>
                    </g>
                    <g>
                        <g transform="matrix(-0.717481,0,0,0.457083,1112.74,571.707)">
                            <path d="M968.371,470.792C941.458,470.767 918.405,450.452 916.491,421.992C914.739,395.943 922.499,375.178 964.964,373.3C966.076,373.251 967.212,373.214 968.371,373.191C1002.6,372.512 1042.51,374.971 1042.51,374.971" style="fill:rgb(253,228,212);stroke:black;stroke-width:11.64px;"/>
                        </g>
                        <g transform="matrix(-0.18953,1.52937e-16,8.80446e-17,0.152191,457.192,689.706)">
                            <path d="M131.813,430.687C131.813,430.687 58.812,453.523 73.347,505.379C87.883,557.234 147.022,518.364 141.84,496.753C136.658,475.143 105.357,462.663 91.994,488.9" style="fill:none;stroke:black;stroke-width:11.64px;"/>
                        </g>
                    </g>
                </g>
                <g>
                    <g transform="matrix(1,0,0,1,-1.63623,-8.89305)">
                        <g transform="matrix(0.791714,0,0,0.791714,-522.236,468.711)">
                            <g transform="matrix(1.05868,0,0,0.980726,-105.964,-35.1146)">
                                <path d="M968.371,373.191C1002.6,372.512 1025.13,391.005 1020.25,421.992C1015.75,450.557 998.471,470.821 968.371,470.792C941.458,470.767 918.405,450.452 916.491,421.992C914.693,395.261 922.912,374.094 968.371,373.191Z" style="fill:white;stroke:black;stroke-width:9.9px;"/>
                            </g>
                            <g transform="matrix(-1.05868,0,0,0.980726,2094.13,-35.1146)">
                                <path d="M968.371,373.191C1002.6,372.512 1025.13,391.005 1020.25,421.992C1015.75,450.557 998.471,470.821 968.371,470.792C941.458,470.767 918.405,450.452 916.491,421.992C914.693,395.261 922.912,374.094 968.371,373.191Z" style="fill:white;stroke:black;stroke-width:9.9px;"/>
                            </g>
                            <path d="M970.762,353.576C970.762,353.576 993.182,340.479 1017,353.576" style="fill:none;stroke:black;stroke-width:10.1px;stroke-linecap:butt;"/>
                        </g>
                        <g transform="matrix(1.89222,0,0,1.89222,-1403.79,-947.366)">
                            <circle cx="904.575" cy="902.346" r="3.552"/>
                        </g>
                        <g transform="matrix(1.89222,0,0,1.89222,-1520.07,-947.366)">
                            <circle cx="904.575" cy="902.346" r="3.552"/>
                        </g>
                    </g>
                    <g transform="matrix(-0.273616,-0.0566364,0.0781209,-0.377409,474.987,908.031)">
                        <path d="M1123.86,378.744C1121.84,406.655 1097.43,426.578 1068.94,426.603C1044.04,426.625 1027.6,414.904 1019.25,396.233" style="fill:none;stroke:black;stroke-width:23.77px;"/>
                    </g>
                    <g transform="matrix(0.273616,-0.0566364,-0.0781209,-0.377409,69.9896,915.633)">
                        <path d="M1123.86,378.744C1121.84,406.655 1097.43,426.578 1068.94,426.603C1044.04,426.625 1027.6,414.904 1019.25,396.233" style="fill:none;stroke:black;stroke-width:23.77px;"/>
                    </g>
                </g>
                <g>
                    <g transform="matrix(0.638432,-0.17465,-0.17465,0.915638,-229.838,71.6461)">
                        <path d="M871.242,809.513L883.375,815.374" style="fill:none;stroke:black;stroke-width:6.47px;"/>
                    </g>
                    <g transform="matrix(0.92851,-0.108973,-0.108973,0.833892,-541.004,78.1979)">
                        <path d="M901.523,778.725L907.116,787.251" style="fill:none;stroke:black;stroke-width:5.17px;"/>
                    </g>
                    <g transform="matrix(0.957924,-0.093928,-0.093928,0.790321,-579.716,98.4392)">
                        <path d="M937.825,761.164L941.691,769.795" style="fill:none;stroke:black;stroke-width:5.1px;"/>
                    </g>
                    <g transform="matrix(0.996298,-0.0304785,-0.0304785,0.749046,-664.777,69.7949)">
                        <path d="M981.556,752.194L982.764,762.146" style="fill:none;stroke:black;stroke-width:4.7px;"/>
                    </g>
                    <g transform="matrix(0.998619,0.0194656,0.0194656,0.725645,-705.048,37.4995)">
                        <path d="M1023.51,749.928L1022.71,761.164" style="fill:none;stroke:black;stroke-width:4.48px;"/>
                    </g>
                    <g transform="matrix(0.961958,0.0802422,0.0802422,0.830746,-713.111,-106.141)">
                        <path d="M1068.29,761.164L1063.32,771.646" style="fill:none;stroke:black;stroke-width:4.09px;"/>
                    </g>
                    <g transform="matrix(0.879847,0.146364,0.146364,0.821708,-675.806,-170.714)">
                        <path d="M1103.02,782.988L1096.01,791.529" style="fill:none;stroke:black;stroke-width:4.01px;"/>
                    </g>
                    <g transform="matrix(0.883867,0.0994351,0.0994351,0.914862,-643.11,-192.977)">
                        <path d="M1126.07,806.564L1115.93,815.243" style="fill:none;stroke:black;stroke-width:4px;"/>
                    </g>
                    <g transform="matrix(0.773975,0.0688004,0.0688004,0.979058,-494.854,-211.323)">
                        <path d="M1141.28,849.564L1130.27,852.915" style="fill:none;stroke:black;stroke-width:4.21px;"/>
                    </g>
                </g>
                <g>
                    <g transform="matrix(2.52133,0,0,2.93703,-2132.84,-485.279)">
                        <path d="M970.795,444.918L975.76,447.67L975.366,453.72L981.952,455.632L979.594,459.282L983.626,462.131L981.627,466.624L984.027,467.481L984.281,468.652C979.45,470.056 974.147,470.798 968.371,470.792C952.811,470.777 938.541,463.98 928.901,452.749L930.365,446.53L932.421,442.808L935.782,444.918L936.984,441.394L940.567,444.281L942.208,440.009L947.283,442.973L948.67,438.507L952.462,442.607L956.155,440.043L958.119,442.528L962.196,441.394L964.098,444.281L968.329,442.287L970.795,444.918Z" style="stroke:black;stroke-width:2.92px;"/>
                    </g>
                    <g transform="matrix(0.79245,0,0,0.79245,-140.629,149.314)">
                        <path d="M470.202,860.92C470.202,860.92 502.05,894.205 553.163,863.857" style="fill:none;stroke:white;stroke-width:10.1px;"/>
                    </g>
                </g>
                <g>
                    <g transform="matrix(1,0,0,1,129.586,-39.5406)">
                        <path d="M275.209,847.106L275.756,847.106" style="fill:none;stroke:black;stroke-width:4px;"/>
                    </g>
                    <g transform="matrix(1,0,0,1,119.586,-59.5406)">
                        <path d="M275.209,847.106L275.756,847.106" style="fill:none;stroke:black;stroke-width:4px;"/>
                    </g>
                    <g transform="matrix(1,0,0,1,129.586,-79.5406)">
                        <path d="M275.209,847.106L275.756,847.106" style="fill:none;stroke:black;stroke-width:4px;"/>
                    </g>
                    <g transform="matrix(1,0,0,1,129.586,-99.5406)">
                        <path d="M275.209,847.106L275.756,847.106" style="fill:none;stroke:black;stroke-width:4px;"/>
                    </g>
                    <g transform="matrix(1,0,0,1,139.586,-129.541)">
                        <path d="M275.209,847.106L275.756,847.106" style="fill:none;stroke:black;stroke-width:4px;"/>
                    </g>
                    <g transform="matrix(1,0,0,1,119.586,-119.541)">
                        <path d="M275.209,847.106L275.756,847.106" style="fill:none;stroke:black;stroke-width:4px;"/>
                    </g>
                    <g transform="matrix(1,0,0,1,119.586,-149.541)">
                        <path d="M275.209,847.106L275.756,847.106" style="fill:none;stroke:black;stroke-width:4px;"/>
                    </g>
                    <g transform="matrix(1,0,0,1,139.586,-159.541)">
                        <path d="M275.209,847.106L275.756,847.106" style="fill:none;stroke:black;stroke-width:4px;"/>
                    </g>
                    <g transform="matrix(1,0,0,1,129.586,-179.541)">
                        <path d="M275.209,847.106L275.756,847.106" style="fill:none;stroke:black;stroke-width:4px;"/>
                    </g>
                    <g transform="matrix(1,0,0,1,109.586,-189.541)">
                        <path d="M275.209,847.106L275.756,847.106" style="fill:none;stroke:black;stroke-width:4px;"/>
                    </g>
                    <g transform="matrix(1,0,0,1,99.5858,-169.541)">
                        <path d="M275.209,847.106L275.756,847.106" style="fill:none;stroke:black;stroke-width:4px;"/>
                    </g>
                    <g transform="matrix(1,0,0,1,99.5858,-209.541)">
                        <path d="M275.209,847.106L275.756,847.106" style="fill:none;stroke:black;stroke-width:4px;"/>
                    </g>
                    <g transform="matrix(1,0,0,1,89.5858,-189.541)">
                        <path d="M275.209,847.106L275.756,847.106" style="fill:none;stroke:black;stroke-width:4px;"/>
                    </g>
                    <g transform="matrix(1,0,0,1,79.5858,-209.541)">
                        <path d="M275.209,847.106L275.756,847.106" style="fill:none;stroke:black;stroke-width:4px;"/>
                    </g>
                    <g transform="matrix(1,0,0,1,59.5858,-219.541)">
                        <path d="M275.209,847.106L275.756,847.106" style="fill:none;stroke:black;stroke-width:4px;"/>
                    </g>
                    <g transform="matrix(1,0,0,1,59.5858,-199.541)">
                        <path d="M275.209,847.106L275.756,847.106" style="fill:none;stroke:black;stroke-width:4px;"/>
                    </g>
                    <g transform="matrix(1,0,0,1,39.5858,-209.541)">
                        <path d="M275.209,847.106L275.756,847.106" style="fill:none;stroke:black;stroke-width:4px;"/>
                    </g>
                    <g transform="matrix(1,0,0,1,19.5858,-219.541)">
                        <path d="M275.209,847.106L275.756,847.106" style="fill:none;stroke:black;stroke-width:4px;"/>
                    </g>
                    <g transform="matrix(1,0,0,1,-0.414168,-209.541)">
                        <path d="M275.209,847.106L275.756,847.106" style="fill:none;stroke:black;stroke-width:4px;"/>
                    </g>
                    <g transform="matrix(1,0,0,1,-20.4142,-219.541)">
                        <path d="M275.209,847.106L275.756,847.106" style="fill:none;stroke:black;stroke-width:4px;"/>
                    </g>
                    <g transform="matrix(1,0,0,1,-20.4142,-219.541)">
                        <path d="M275.209,847.106L275.756,847.106" style="fill:none;stroke:black;stroke-width:4px;"/>
                    </g>
                    <g transform="matrix(1,0,0,1,-30.4142,-209.541)">
                        <path d="M275.209,847.106L275.756,847.106" style="fill:none;stroke:black;stroke-width:4px;"/>
                    </g>
                    <g transform="matrix(1,0,0,1,-50.4142,-199.541)">
                        <path d="M275.209,847.106L275.756,847.106" style="fill:none;stroke:black;stroke-width:4px;"/>
                    </g>
                    <g transform="matrix(1,0,0,1,-67.8984,-186.958)">
                        <path d="M275.209,847.106L275.756,847.106" style="fill:none;stroke:black;stroke-width:4px;"/>
                    </g>
                    <g transform="matrix(1,0,0,1,109.586,-19.5406)">
                        <path d="M275.209,847.106L275.756,847.106" style="fill:none;stroke:black;stroke-width:4px;"/>
                    </g>
                    <g transform="matrix(1,0,0,1,99.5858,-39.5406)">
                        <path d="M275.209,847.106L275.756,847.106" style="fill:none;stroke:black;stroke-width:4px;"/>
                    </g>
                    <g transform="matrix(1,0,0,1,99.5858,0.459352)">
                        <path d="M275.209,847.106L275.756,847.106" style="fill:none;stroke:black;stroke-width:4px;"/>
                    </g>
                </g>
            </g>
        </g>
    </g>
</svg>
