<svg xmlns="http://www.w3.org/2000/svg" xml:space="preserve" fill-rule="evenodd" stroke-linecap="round" stroke-linejoin="round" stroke-miterlimit="1.5" clip-rule="evenodd" viewBox="0 0 606 261"><path fill="none" stroke="#000" stroke-width="8" d="M8327.63 1084.69c67.5-74.22 164.82-120.85 272.94-120.85q2.3 0 5.67.11" transform="matrix(1.86958 0 0 -1.86958 -15561.7 2035.39)"/><path fill="#fff" stroke="#000" stroke-width="3.59" d="m8337.54 1221.79-8.01 48.96s5.23 2.25 1.94 8.53-5.01 5.92-5.01 5.92l5.91 10.07 9.93-7.92s-7.7-9.15.24-13.18l8.13-49.71z" transform="rotate(104.62 7845.21 -7702.74)scale(2.0834 -2.0834)"/><path fill="none" stroke="#000" stroke-width="3.59" d="m8330.36 1265.65 13.15 2.56M8345.09 1258.53l-13.26-1.83" transform="rotate(104.62 7845.21 -7702.74)scale(2.0834 -2.0834)"/><path stroke="#000" stroke-width="4.99" d="m8346.23 1237.38-6.08 21.51.26 8.78 26.34-2.08-.3-4.91-7.8-24.78z" transform="rotate(90.09 5430.46 -6849.62)scale(1.49826 -1.49826)"/></svg>