<svg xmlns="http://www.w3.org/2000/svg" xml:space="preserve" fill-rule="evenodd" stroke-linecap="round" stroke-linejoin="round" stroke-miterlimit="1.5" clip-rule="evenodd" viewBox="0 0 542 136"><path fill="none" stroke="#000" stroke-width="8" d="M8720.35 950.16c16.54 38.05 56.36 58.44 56.36 58.44a371 371 0 0 1 148.84 149.55" transform="rotate(-40.88 3354.72 11898.12)"/><path fill="#fff" stroke="#000" stroke-width="6.66" d="m1517.45 392.28 11.04 133.86 34.27.9 4.88-136.34z" transform="rotate(107.33 437.3 -345.7)scale(.60083 -.60083)"/><path d="m76.54 29.7 165.32 60.5-5.84 32.9L58.8 74.32z"/><path fill="#fff" stroke="#000" stroke-width="11.25" d="M968.37 365.46c34.23-.67 56.76 25.55 51.88 56.53-4.5 28.57-21.78 48.83-51.88 48.8A51.8 51.8 0 0 1 916.5 422c-1.8-26.73 6.42-55.62 51.88-56.53" transform="rotate(126.34 294.87 -290.93)scale(.7375 -.6832)"/><path fill="#fff" stroke="#000" stroke-width="5.63" d="M977.35 365.92q3.33.42 6.46 1.19l.01.6zM946.6 466.06a52 52 0 0 1-13.32-8.8l-.02-1.18 13.2 3.63zM933.28 457.26a51 51 0 0 1-1.73-1.65l1.7.47zM919.73 437.17a54 54 0 0 1-3.22-14.92l2.9.8zM919.1 408.35l.32 14.7 13.2 3.63-.32-14.7z" transform="rotate(126.34 294.9 -290.95)scale(.7375 -.6832)"/><path fill="#fff" stroke="#000" stroke-width="5.63" d="m918.84 396.3.26 12.05 13.2 3.63-.32-14.7-12.34-3.4q-.43 1.2-.8 2.43" transform="rotate(126.34 294.9 -290.95)scale(.7375 -.6832)"/><path fill="#fff" stroke="#000" stroke-width="5.63" d="M919.64 393.89c1.66-4.58 4-8.85 7.23-12.63l4.8 1.32.31 14.7z" transform="rotate(126.34 294.9 -290.95)scale(.7375 -.6832)"/><path fill="#fff" stroke="#000" stroke-width="5.63" d="M926.87 381.26a38 38 0 0 1 4.66-4.59l.13 5.91zM941.43 370.65q1.47-.64 3.07-1.23l.04 2.1zM957.55 366.29a92 92 0 0 1 13.1-.83l.3 13.31-13.2-3.63zM916.5 422.25v-.26c-.33-4.76-.33-9.59.14-14.32l2.46.68.32 14.7zM933.26 456.08l13.2 3.63-.32-14.7-13.2-3.63z" transform="rotate(126.34 294.9 -290.95)scale(.7375 -.6832)"/><path fill="#fff" stroke="#000" stroke-width="5.63" d="m931.55 455.61 1.7.47-.31-14.7-12.97-3.57a51 51 0 0 0 11.58 17.8M919.97 437.81q-.13-.3-.25-.64l-.3-14.12 13.2 3.63.32 14.7z" transform="rotate(126.34 294.9 -290.95)scale(.7375 -.6832)"/><path fill="#fff" stroke="#000" stroke-width="5.63" d="m932.3 411.98.32 14.7 13.2 3.63-.32-14.7zM931.98 397.28l.32 14.7 13.2 3.63-.32-14.7z" transform="rotate(126.34 294.9 -290.95)scale(.7375 -.6832)"/><path fill="#fff" stroke="#000" stroke-width="5.63" d="m931.66 382.58.32 14.7 13.2 3.63-.32-14.7z" transform="rotate(126.34 294.9 -290.95)scale(.7375 -.6832)"/><path fill="#fff" stroke="#000" stroke-width="5.63" d="m931.53 376.67.13 5.91 13.2 3.63-.32-14.7-3.12-.86a42 42 0 0 0-9.89 6.02M944.54 371.51l13.2 3.63.32 14.7-13.2-3.63z" transform="rotate(126.34 294.9 -290.95)scale(.7375 -.6832)"/><path fill="#fff" stroke="#000" stroke-width="5.63" d="m957.74 375.14 13.2 3.63.32 14.7-13.2-3.63z" transform="rotate(126.34 294.9 -290.95)scale(.7375 -.6832)"/><path fill="#fff" stroke="#000" stroke-width="5.63" d="m970.94 378.77 13.2 3.63.32 14.7-13.2-3.63z" transform="rotate(126.34 294.9 -290.95)scale(.7375 -.6832)"/><path fill="#fff" stroke="#000" stroke-width="5.63" d="m984.14 382.4 13.2 3.63.32 14.7-13.2-3.63zM997.66 400.73l.32 14.7-13.2-3.63-.32-14.7z" transform="rotate(126.34 294.9 -290.95)scale(.7375 -.6832)"/><path fill="#fff" stroke="#000" stroke-width="5.63" d="m997.98 415.43.32 14.7-13.2-3.63-.32-14.7zM998.3 430.13l.32 14.7-13.2-3.63-.32-14.7z" transform="rotate(126.34 294.9 -290.95)scale(.7375 -.6832)"/><path fill="#fff" stroke="#000" stroke-width="5.63" d="m998.62 444.83.31 14.7-13.2-3.63-.31-14.7z" transform="rotate(126.34 294.9 -290.95)scale(.7375 -.6832)"/><path fill="#fff" stroke="#000" stroke-width="5.63" d="m972.54 452.27 13.2 3.63-.32-14.7-13.2-3.63z" transform="rotate(126.34 294.9 -290.95)scale(.7375 -.6832)"/><path fill="#fff" stroke="#000" stroke-width="5.63" d="m959.34 448.64 13.2 3.63-.32-14.7-13.2-3.63z" transform="rotate(126.34 294.9 -290.95)scale(.7375 -.6832)"/><path fill="#fff" stroke="#000" stroke-width="5.63" d="m946.14 445.01 13.2 3.63-.32-14.7-13.2-3.63z" transform="rotate(126.34 294.9 -290.95)scale(.7375 -.6832)"/><path fill="#fff" stroke="#000" stroke-width="5.63" d="m932.94 441.38 13.2 3.63-.32-14.7-13.2-3.63zM945.5 415.61l.32 14.7 13.2 3.63-.32-14.7z" transform="rotate(126.34 294.9 -290.95)scale(.7375 -.6832)"/><path fill="#fff" stroke="#000" stroke-width="5.63" d="m945.18 400.91.32 14.7 13.2 3.63-.32-14.7zM944.86 386.21l.32 14.7 13.2 3.63-.32-14.7z" transform="rotate(126.34 294.9 -290.95)scale(.7375 -.6832)"/><path fill="#fff" stroke="#000" stroke-width="5.63" d="m958.06 389.84 13.2 3.63.32 14.7-13.2-3.63z" transform="rotate(126.34 294.9 -290.95)scale(.7375 -.6832)"/><path fill="#fff" stroke="#000" stroke-width="5.63" d="m971.26 393.47 13.2 3.63.32 14.7-13.2-3.63zM984.78 411.8l.32 14.7-13.2-3.63-.32-14.7z" transform="rotate(126.34 294.9 -290.95)scale(.7375 -.6832)"/><path fill="#fff" stroke="#000" stroke-width="5.63" d="m985.1 426.5.32 14.7-13.2-3.63-.32-14.7z" transform="rotate(126.34 294.9 -290.95)scale(.7375 -.6832)"/><path fill="#fff" stroke="#000" stroke-width="5.63" d="m959.02 433.94 13.2 3.63-.32-14.7-13.2-3.63zM958.38 404.54l.32 14.7 13.2 3.63-.32-14.7zM970.65 365.46q3.45.06 6.7.46l6.47 1.78.32 14.7-13.2-3.63z" transform="rotate(126.34 294.9 -290.95)scale(.7375 -.6832)"/><path fill="#fff" stroke="#000" stroke-width="5.63" d="m983.82 367.7 9 2.48q2.18.97 4.22 2.13l.3 13.72-13.2-3.63z" transform="rotate(126.34 294.9 -290.95)scale(.7375 -.6832)"/><path fill="#fff" stroke="#000" stroke-width="5.63" d="M997.04 372.3a47 47 0 0 1 13.37 11.22l.13 6.14-13.2-3.63z" transform="rotate(126.34 294.9 -290.95)scale(.7375 -.6832)"/><path fill="#fff" stroke="#000" stroke-width="5.63" d="m1010.54 389.66.32 14.7-13.2-3.63-.32-14.7z" transform="rotate(126.34 294.9 -290.95)scale(.7375 -.6832)"/><path fill="#fff" stroke="#000" stroke-width="5.63" d="m1010.86 404.36.32 14.7-13.2-3.63-.32-14.7zM1011.18 419.06l.32 14.7-13.2-3.63-.32-14.7zM1011.5 433.76l.28 13.1-.83 1.36-12.33-3.39-.32-14.7z" transform="rotate(126.34 294.9 -290.95)scale(.7375 -.6832)"/><path fill="#fff" stroke="#000" stroke-width="5.63" d="M1010.95 448.22a49 49 0 0 1-10.23 11.8l-1.79-.49-.31-14.7z" transform="rotate(126.34 294.9 -290.95)scale(.7375 -.6832)"/><path fill="#fff" stroke="#000" stroke-width="5.63" d="M1000.72 460.02q-.85.7-1.75 1.37l-.04-1.86z" transform="rotate(126.34 294.9 -290.95)scale(.7375 -.6832)"/><path fill="#fff" stroke="#000" stroke-width="5.63" d="M998.98 461.39a45 45 0 0 1-12.98 6.73l-.26-12.22 13.2 3.63zM986 468.12q-2.16.71-4.45 1.24l-8.7-2.39-.31-14.7 13.2 3.63z" transform="rotate(126.34 294.9 -290.95)scale(.7375 -.6832)"/><path fill="#fff" stroke="#000" stroke-width="5.63" d="m959.66 463.34 13.2 3.63-.32-14.7-13.2-3.63z" transform="rotate(126.34 294.9 -290.95)scale(.7375 -.6832)"/><path fill="#fff" stroke="#000" stroke-width="5.63" d="m946.46 459.71 13.2 3.63-.32-14.7-13.2-3.63zM1010.41 383.52a46 46 0 0 1 4.97 7.47l-4.84-1.33zM1015.38 391a47 47 0 0 1 5.1 16l-9.62-2.64-.32-14.7zM1020.48 407c.62 4.67.59 9.56-.16 14.57l-9.14-2.5-.32-14.7z" transform="rotate(126.34 294.9 -290.95)scale(.7375 -.6832)"/><path fill="#fff" stroke="#000" stroke-width="5.63" d="m1020.32 421.58-.07.41a79 79 0 0 1-3.23 13.29l-5.52-1.52-.32-14.7z" transform="rotate(126.34 294.9 -290.95)scale(.7375 -.6832)"/><path fill="#fff" stroke="#000" stroke-width="5.63" d="M1017.02 435.28a63 63 0 0 1-5.24 11.58l-.28-13.1zM983.8 367.1a53 53 0 0 1 9.02 3.08l-9-2.48z" transform="rotate(126.34 294.9 -290.95)scale(.7375 -.6832)"/><path fill="#fde4d4" stroke="#000" stroke-width="5.38" d="M2388.39 567.22s6.61-62.15-27.86-44.13c0 0-18.71 7.33-5.56 20.2s15.89 3.98 18.31 0" transform="matrix(.3015 1.0728 1.0728 -.3015 -1143.5 -2282.8)"/><path fill="#fde4d4" stroke="#000" stroke-width="7.94" d="M1491.37 522.46c-2.28-2.61-3.6-5.7-3.6-9.03 0-9.25 10.26-16.76 22.9-16.76s19.61 7.87 19.61 17.12c0 7.07-4.07 12.9-11.63 15.27a19 19 0 0 1 2.81 10.2c0 8.53-4.88 16.48-12.75 19.62a13 13 0 0 1 2.69 9.14c-.89 12.08-5.58 17.9-12.43 20.2.79 1.8 1.23 3.78 1.23 5.88 0 9.83-9.65 18.76-19.48 18.76a17.82 17.82 0 0 1-8.53-33.44 18 18 0 0 1-2.47-9.04c0-8.32 5.77-15.4 13.81-18a18.7 18.7 0 0 1-4.46-12.03c0-7.84 5.02-14.63 12.3-17.9" transform="rotate(126.34 514.96 -421.14)scale(.74072 -.76946)"/><path fill="none" stroke="#000" stroke-width="6.22" d="m380.77 917.73-5.92 5.29M366.92 897.43l-6.33 5.22M352.9 876.69l-6.7 4.6" transform="matrix(.261 .92871 .9287 -.261 -764.13 -37)"/></svg>